<svg width="485" height="161" viewBox="0 0 485 161" fill="none" xmlns="http://www.w3.org/2000/svg">
<path d="M192.091 106.193V61.5058C196.135 61.465 200.174 61.1789 204.184 60.649V65.6795C206.448 62.3014 209.214 60.6123 212.458 60.6123C214.142 60.6001 215.799 61.0343 217.261 61.8706C218.723 62.7069 219.938 63.9155 220.781 65.3736C222.845 68.5477 223.882 72.7949 223.89 78.1151C223.89 89.8816 219.969 95.7648 212.127 95.7648C210.611 95.7977 209.107 95.4841 207.731 94.8477C206.354 94.2114 205.141 93.2692 204.184 92.0929V106.193H192.091ZM208.002 65.5082C205.334 65.5082 204 69.6616 204 77.9683C204 86.6095 205.281 90.9261 207.843 90.9179C210.136 90.9179 211.283 86.6014 211.283 77.9683C211.315 69.6452 210.238 65.4837 208.051 65.4837L208.002 65.5082Z" fill="white"/>
<path d="M228.931 94.872V49.6461C232.505 49.6461 236.536 49.4176 241.024 48.9607V67.2102C243.627 62.8202 247.299 60.6211 252.04 60.613C257.646 60.613 260.453 63.1302 260.461 68.1649V94.872H248.368V69.4745C248.368 67.5529 247.719 66.586 246.434 66.586C245.149 66.586 243.876 67.8099 242.762 70.2579C241.616 72.744 241.031 75.4518 241.048 78.1892V94.823L228.931 94.872Z" fill="white"/>
<path d="M300.952 93.6848C298.204 94.7936 295.274 95.379 292.311 95.4106C288.149 95.4106 285.587 94.1173 284.624 91.5306C283.62 92.8643 282.303 93.9304 280.79 94.6348C279.277 95.3392 277.613 95.6603 275.946 95.5697C268.896 95.5697 265.371 92.3058 265.371 85.778C265.371 80.8086 268.594 77.3162 275.04 75.3007C280.964 73.4566 283.927 71.2289 283.927 68.6178C283.927 65.1907 282.225 63.4771 278.823 63.4771C274.89 63.4771 272.923 65.1336 272.923 68.4465C273.007 69.8589 273.321 71.248 273.853 72.559L267.856 71.3962C267.705 70.4325 267.627 69.4587 267.623 68.4832C267.623 63.1874 272.462 60.5355 282.14 60.5273C291.319 60.5273 295.913 63.0039 295.921 67.9569V88.2259C295.921 90.3067 296.595 91.3348 297.941 91.3348C298.603 91.2558 299.236 91.0208 299.789 90.6493L300.952 93.6848ZM283.816 74.7989C283.065 75.6533 282.181 76.3808 281.197 76.9531C278.7 78.4055 277.452 80.8535 277.452 84.2969C277.452 88.7195 278.313 90.9268 280.034 90.9186C282.556 90.9186 283.816 88.74 283.816 84.3581V74.7989Z" fill="white"/>
<path d="M327.193 73.5986H318.907C319.11 72.6264 319.368 71.6661 319.678 70.7223C319.963 69.9366 320.12 69.11 320.143 68.2743C320.143 66.8545 319.629 66.1446 318.613 66.1446C317.842 66.1446 317.107 67.0871 316.397 68.9475C315.685 70.8366 315.324 72.8402 315.333 74.8593V94.8713H303.24V61.4813H305.59C308.872 61.4436 312.146 61.1448 315.382 60.5878V66.0957C317.352 62.4237 319.751 60.5878 322.603 60.5878C326.495 60.5878 328.441 62.7297 328.441 67.0136C328.412 68.325 328.222 69.6279 327.878 70.8937C327.695 71.5179 327.487 72.4114 327.193 73.5986Z" fill="white"/>
<path d="M381.132 94.871H369.039V69.7918C369.039 67.6009 368.403 66.5115 367.118 66.5115C364.156 66.5115 362.675 69.6612 362.675 75.9606V94.871H350.582V70.3181C350.582 67.8701 350.006 66.585 348.868 66.585C345.857 66.585 344.352 69.7183 344.352 75.9851V94.871H332.259V61.3831C336.304 61.3838 340.345 61.1057 344.352 60.5508V66.3157C347.199 62.4969 350.712 60.5875 354.89 60.5875C358.374 60.5875 360.969 62.3867 362.675 65.9852C363.777 64.3098 365.278 62.9335 367.042 61.9788C368.806 61.0242 370.779 60.5209 372.785 60.514C378.35 60.514 381.132 63.3292 381.132 68.9595V94.871Z" fill="white"/>
<path d="M421.622 93.6848C418.871 94.7938 415.936 95.3791 412.969 95.4106C408.816 95.4106 406.253 94.1173 405.282 91.5306C404.279 92.8651 402.962 93.9318 401.449 94.6363C399.935 95.3408 398.271 95.6614 396.604 95.5697C389.554 95.5697 386.029 92.3058 386.029 85.778C386.029 80.8086 389.256 77.3162 395.711 75.3007C401.619 73.4566 404.577 71.2289 404.585 68.6178C404.585 65.1907 402.888 63.4771 399.493 63.4771C395.552 63.4771 393.593 65.1295 393.593 68.4465C393.672 69.8584 393.982 71.2478 394.511 72.559L388.514 71.3962C388.369 70.4318 388.291 69.4584 388.281 68.4832C388.281 63.1874 393.12 60.5355 402.798 60.5273C411.986 60.5273 416.58 63.0039 416.58 67.9569V88.2259C416.58 90.3067 417.253 91.3348 418.599 91.3348C419.265 91.2567 419.902 91.0218 420.46 90.6493L421.622 93.6848ZM404.487 74.7989C403.741 75.6588 402.855 76.387 401.867 76.9531C399.371 78.4055 398.122 80.8535 398.122 84.2969C398.122 88.7195 398.987 90.9268 400.717 90.9186C403.226 90.9186 404.487 88.74 404.487 84.3581V74.7989Z" fill="white"/>
<path d="M447.558 79.963L452.662 81.5174V82.8761C452.662 91.3623 448.023 95.6054 438.745 95.6054C427.738 95.6054 422.238 90.0281 422.246 78.8737C422.246 73.2842 423.845 68.8289 427.044 65.5079C430.243 62.1868 434.539 60.5222 439.933 60.514C447.693 60.514 451.568 64.0269 451.56 71.0525L445.906 73.8064V70.6241C445.906 65.8506 444.302 63.4638 441.095 63.4638C436.86 63.4638 434.743 68.1476 434.743 77.5151C434.743 83.3085 435.196 87.2783 436.102 89.4243C436.479 90.4336 437.173 91.2936 438.08 91.876C438.986 92.4584 440.057 92.7319 441.132 92.6556C445.612 92.6556 447.856 89.7507 447.864 83.9409C447.847 82.6098 447.745 81.2811 447.558 79.963Z" fill="white"/>
<path d="M485 61.4812L469.688 99.1796C467.591 104.345 464.764 106.927 461.206 106.927C459.724 107.038 458.246 106.67 456.99 105.876C455.734 105.083 454.766 103.907 454.229 102.521L458.403 99.5101C458.733 102.056 459.627 103.329 461.218 103.329C462.956 103.329 464.376 101.848 465.453 98.9103L466.347 96.5236L452.883 61.4812H466.175L472.895 81.0648L480.545 61.4812H485Z" fill="white"/>
<path d="M232.689 10.9673C231.411 10.9494 230.14 11.1523 228.931 11.567C226.347 12.4818 224.122 14.1969 222.579 16.4629C220.882 12.8481 218.287 11.0448 214.794 11.0529C210.621 11.0529 207.096 12.9746 204.268 16.7811V11.0285C200.256 11.5778 196.212 11.8558 192.163 11.8607V45.3609H204.268V26.4383C204.268 20.1838 205.761 17.0259 208.772 17.0259C209.911 17.0259 210.498 18.2499 210.498 20.7835V45.3365H222.579V26.4138C222.579 20.1104 224.06 16.977 227.022 16.977C228.136 16.977 228.784 17.797 228.931 19.4249C228.931 19.6697 228.931 19.939 228.931 20.2083V43.8065C232.959 43.8271 236.984 44.06 240.987 44.5042V26.2914V19.376C241.036 13.7702 238.246 10.9673 232.689 10.9673Z" fill="white"/>
<path d="M271.428 11.9481L263.766 31.5317L260.461 21.8745L257.046 11.9481H243.705L248.331 24.0043L251.758 32.8781L257.168 46.9783L256.275 49.365C255.173 52.2903 253.827 53.7714 252.028 53.7714C250.473 53.7714 249.58 52.5474 249.212 49.9648L245.039 52.9757C245.575 54.3699 246.548 55.5534 247.812 56.3497C249.076 57.146 250.563 57.5124 252.052 57.3943C255.614 57.3943 258.429 54.7995 260.534 49.6221L275.895 11.9481H271.428Z" fill="white"/>
<path d="M60.4639 85.2144H24.3444C23.3708 85.2187 22.3978 85.1615 21.4314 85.0431C15.322 84.3111 9.72318 81.2723 5.78039 76.5484C1.83759 71.8246 -0.151185 65.7727 0.220953 59.6308C0.59309 53.489 3.298 47.7215 7.78231 43.5082C12.2666 39.2949 18.1913 36.9544 24.3444 36.9654H60.4639V85.2144Z" fill="white"/>
<path d="M147.476 60.7355C147.476 76.6418 141.157 91.8966 129.91 103.144C118.663 114.392 103.408 120.71 87.5014 120.71H72.52C72.52 120.833 65.5923 120.502 65.5923 120.502C65.5923 120.502 65.5923 160.245 65.3965 160.269H24.4545C24.4242 160.283 24.3913 160.289 24.3582 160.288C24.325 160.287 24.2926 160.279 24.2631 160.263C24.2337 160.248 24.2081 160.226 24.1883 160.2C24.1684 160.173 24.1548 160.143 24.1485 160.11V85.5577C24.1393 85.5203 24.1387 85.4812 24.1466 85.4435C24.1546 85.4058 24.1709 85.3703 24.1944 85.3397C24.2179 85.3092 24.248 85.2843 24.2824 85.2669C24.3168 85.2496 24.3548 85.2402 24.3933 85.2395H87.171C98.762 85.2395 110.243 75.9495 111.761 64.4319C112.233 61.0143 111.967 57.5353 110.982 54.229C109.996 50.9227 108.314 47.866 106.047 45.2646C103.781 42.6633 100.984 40.5777 97.844 39.1483C94.704 37.7189 91.2942 36.9789 87.8442 36.9782H24.1975V0.711792H87.4647C103.365 0.731226 118.609 7.0562 129.852 18.2994C141.095 29.5427 147.42 44.7862 147.439 60.6866L147.476 60.7355Z" fill="#01B3A3"/>
<path d="M26.83 41.4575C23.9444 41.8864 21.1315 42.7101 18.4703 43.9054C15.86 45.0897 13.5098 46.7786 11.5548 48.8748L10.8082 49.6459L10.1839 50.5027C9.72649 51.0586 9.31703 51.6523 8.95996 52.2774L7.94408 54.1746C7.66256 54.8233 7.45449 55.5087 7.18522 56.1819L6.80579 57.1978C6.69563 57.5405 6.63441 57.8955 6.54873 58.2504L6.08361 60.3801C5.81434 61.8 5.75316 63.2687 5.53285 64.7375C5.53285 63.2687 5.42269 61.7877 5.53285 60.2945L5.85109 58.0913C5.85109 57.7241 5.93675 57.3447 6.02243 56.9775L6.32842 55.9004C7.09121 52.9619 8.57644 50.2607 10.6491 48.0425C12.7138 45.8234 15.2654 44.114 18.1031 43.0487C20.88 41.9527 23.845 41.4121 26.83 41.4575Z" fill="black"/>
<path d="M84.9678 81.1755C87.8482 80.7408 90.6563 79.9173 93.3153 78.7275C95.9293 77.5435 98.2836 75.8547 100.243 73.7582L100.977 72.9871L101.602 72.1303C102.057 71.5731 102.467 70.9795 102.826 70.3556L103.829 68.4706C104.111 67.8097 104.331 67.1243 104.6 66.4511L104.98 65.4474C105.09 65.0925 105.139 64.7375 105.225 64.3826L105.702 62.2651C105.971 60.833 106.02 59.3643 106.253 57.8955C106.253 59.3643 106.363 60.8575 106.253 62.3385L105.947 64.5539C105.886 64.9211 105.849 65.2883 105.775 65.6555L105.457 66.7326C104.699 69.673 103.213 72.3753 101.136 74.5905C99.0701 76.8106 96.5193 78.5237 93.6825 79.5966C90.9055 80.6763 87.947 81.2123 84.9678 81.1755Z" fill="white"/>
</svg>
